# xmcd
#
# Track frame offsets:
#	150
#	17049
#	35503
#	55630
#	74372
#	90867
#	111496
#	128894
#	148422
#	167491
#
# Disc length: 2458 seconds
#
# Revision: 1
# Processed by: cddbd v1.5.2PL0 Copyright (c) Steve Scherf et al.
# Submitted via: EasyCDDAExtractor 11.5.3.1
#
DISCID=8609980a
DTITLE=Jose Luis Reyes - Alza tus Ojos
DYEAR=2006
DGENRE=Gospel Pop
TTITLE0=Aqui estas
TTITLE1=Cuando mi pueblo obra
TTITLE2=Alza tus ojos
TTITLE3=Prosigo al blanco
TTITLE4=Mi voluntad
TTITLE5=Confia
TTITLE6=Cancion del Sur
TTITLE7=Caminar por fe
TTITLE8=Mira ahora los cielos
TTITLE9=Una nueva melodia
EXTD=
EXTT0=
EXTT1=
EXTT2=
EXTT3=
EXTT4=
EXTT5=
EXTT6=
EXTT7=
EXTT8=
EXTT9=
PLAYORDER=
